<?xml version="1.0" encoding="UTF-8"?>
<!DOCTYPE svg PUBLIC "-//W3C//DTD SVG 1.1//EN" "http://www.w3.org/Graphics/SVG/1.1/DTD/svg11.dtd">
<!-- Creator: CorelDRAW 2017 -->
<svg xmlns="http://www.w3.org/2000/svg" xml:space="preserve" width="5.05844in" height="1.56944in" version="1.1" style="shape-rendering:geometricPrecision; text-rendering:geometricPrecision; image-rendering:optimizeQuality; fill-rule:evenodd; clip-rule:evenodd"
viewBox="0 0 16949 5259"
 xmlns:xlink="http://www.w3.org/1999/xlink">
 <defs>
  <style type="text/css">
   <![CDATA[
    .fil1 {fill:#E6E7E8}
    .fil2 {fill:#283556}
    .fil3 {fill:#3B3E56}
    .fil0 {fill:#3B3E56}
   ]]>
  </style>
 </defs>
 <g id="Layer_x0020_1">
  <metadata id="CorelCorpID_0Corel-Layer"/>
  <polygon class="fil0" points="2277,0 3416,657 4554,1315 4554,2629 4554,3944 3416,4601 2277,5259 1139,4601 0,3944 0,2629 0,1315 1139,657 "/>
  <path class="fil1" d="M1094 1582l2073 0 9 -164 -1893 0 -1 -160 2053 -1 5 464c-158,18 -401,3 -568,3 -89,0 -511,-9 -562,9 -29,240 -17,2158 -17,2443l164 5 0 -2271 1147 0 0 -817 -2407 1 -3 487z"/>
  <polygon class="fil1" points="1097,1906 1862,1910 1866,4492 2685,4497 2685,2055 2521,2054 2521,4321 2033,4321 2019,1739 1097,1722 "/>
  <g id="_2563997790240">
   <polygon class="fil2" points="10820,3634 11236,3637 11237,2804 12171,2805 12175,3643 12593,3643 12593,1661 12175,1661 12175,2431 11236,2436 11236,1670 10820,1662 "/>
   <polygon class="fil2" points="7061,3634 8457,3637 8457,3284 7483,3274 7477,2823 8434,2816 8434,2464 7483,2454 7481,2030 8457,2028 8457,1670 7061,1670 "/>
   <path class="fil2" d="M15451 2030l915 1c-38,91 -152,223 -220,317 -83,115 -157,213 -241,328 -86,119 -454,546 -454,694l0 273 1498 0 0 -369 -936 -2c53,-111 186,-267 258,-367l540 -736c162,-211 121,-181 121,-499 -197,-25 -1206,-9 -1481,-9l0 369z"/>
   <path class="fil2" d="M10560 3187l-338 -175 -129 140c-48,45 -89,73 -152,100 -330,140 -806,-82 -812,-588 -4,-323 164,-525 388,-611 185,-71 408,-52 563,90 27,25 42,41 68,68 15,16 25,28 34,37l25 26c3,3 8,9 13,13l347 -160c-136,-352 -626,-593 -1146,-446 -968,273 -973,1649 -18,1937 230,69 505,66 722,-24 179,-74 385,-242 436,-407z"/>
   <polygon class="fil2" points="12862,2030 13444,2035 13446,3643 13865,3643 13868,2030 14437,2030 14438,1661 12862,1661 "/>
   <path class="fil3" d="M5216 2020l576 11c19,402 4,1172 3,1612l418 0 3 -1610 574 -3 -3 -369 -1572 1 0 358z"/>
   <polygon class="fil2" points="14708,3643 15125,3643 15126,1661 14708,1661 "/>
  </g>
 </g>
</svg>
