<?xml version="1.0" encoding="UTF-8"?>
<!DOCTYPE svg PUBLIC "-//W3C//DTD SVG 1.1//EN" "http://www.w3.org/Graphics/SVG/1.1/DTD/svg11.dtd">
<!-- Creator: CorelDRAW 2017 -->
<svg xmlns="http://www.w3.org/2000/svg" xml:space="preserve" width="5.05844in" height="1.56944in" version="1.1" style="shape-rendering:geometricPrecision; text-rendering:geometricPrecision; image-rendering:optimizeQuality; fill-rule:evenodd; clip-rule:evenodd"
viewBox="0 0 17540 5442"
 xmlns:xlink="http://www.w3.org/1999/xlink">
 <defs>
  <style type="text/css">
   <![CDATA[
    .fil0 {fill:#E6E7E8}
    .fil1 {fill:#3B3E56}
   ]]>
  </style>
 </defs>
 <g id="Layer_x0020_1">
  <metadata id="CorelCorpID_0Corel-Layer"/>
  <polygon class="fil0" points="2356,0 3535,680 4713,1360 4713,2721 4713,4081 3535,4762 2356,5442 1178,4762 0,4081 0,2721 0,1360 1178,680 "/>
  <path class="fil1" d="M1132 1637l2146 0 9 -170 -1959 0 -1 -165 2125 -1 5 480c-164,18 -415,3 -587,3 -93,0 -529,-9 -582,9 -30,249 -17,2234 -17,2528l170 5 0 -2350 1187 0 0 -845 -2490 1 -3 504z"/>
  <polygon class="fil1" points="1136,1972 1927,1976 1931,4648 2779,4654 2779,2127 2609,2125 2609,4471 2104,4471 2089,1799 1135,1782 "/>
  <g id="_2563770581360">
   <polygon class="fil0" points="11198,3761 11628,3763 11628,2902 12595,2902 12599,3770 13032,3770 13032,1719 12599,1719 12599,2516 11628,2520 11628,1728 11198,1720 "/>
   <polygon class="fil0" points="7307,3761 8752,3763 8751,3398 7743,3388 7737,2921 8728,2915 8728,2550 7743,2539 7742,2100 8751,2099 8751,1728 7307,1728 "/>
   <path class="fil0" d="M15989 2100l947 1c-39,95 -158,231 -228,328 -86,119 -163,220 -249,340 -89,123 -470,565 -470,718l0 283 1551 0 0 -381 -969 -2c55,-115 193,-277 267,-380l558 -762c167,-218 125,-187 125,-517 -203,-26 -1248,-9 -1533,-9l0 382z"/>
   <path class="fil0" d="M10929 3298l-350 -182 -134 145c-50,46 -93,76 -157,103 -341,145 -834,-85 -840,-609 -4,-334 170,-544 402,-633 192,-74 423,-54 582,94 28,26 44,42 70,70 15,16 26,29 35,39l26 27c3,3 9,9 13,14l359 -165c-141,-365 -648,-613 -1186,-462 -1002,282 -1007,1707 -18,2005 238,72 523,69 747,-24 185,-77 399,-251 451,-421z"/>
   <polygon class="fil0" points="13310,2100 13912,2106 13914,3770 14348,3770 14351,2100 14940,2100 14942,1719 13310,1719 "/>
   <path class="fil0" d="M5398 2090l596 12c20,416 4,1213 3,1668l433 0 3 -1666 594 -3 -3 -382 -1627 1 0 371z"/>
   <polygon class="fil0" points="15220,3770 15652,3770 15654,1719 15220,1719 "/>
  </g>
 </g>
</svg>
